# xmcd
#
# Track frame offsets:
#	150
#	17690
#	31119
#	48530
#	62642
#	81108
#	98887
#	116027
#	128127
#	145851
#	161583
#	176857
#	190841
#	206392
#	218181
#	231497
#
# Disc length: 3274
#
# Revision: 2
# Processed by: cddbd v1.5.1PL0 Copyright (c) Steve Scherf et al.
# Submitted via: CDex 1.30Release
# Normalized: r1:DSETVAR1,TDELIM( - )
#
DISCID=e10cc810
DTITLE=Various Artist - CDX Volume 303 - October 2002
DYEAR=2002
DGENRE=Country
TTITLE0=Joe Nichols - Brokenheartsville
TTITLE1=Jenai - Cool Me Down
TTITLE2=Lee Ann Womack - Forever Everyday
TTITLE3=Kelly Willis - If I Left You
TTITLE4=Shania Twain - I'm Gonna Getcha Good!
TTITLE5=Anthony Smith - John J Blanchard
TTITLE6=Dixie Chicks - Landslide (Sheryl Crow Remix)
TTITLE7=Michael E. Tubbs - She's My Baby
TTITLE8=Blake Shelton - The Baby
TTITLE9=Deana Carter - There's No Limit
TTITLE10=Randy Travis - Three Wooden Crosses
TTITLE11=Cooder Graw - Better Days
TTITLE12=Rian Greene - The Shotgun Side
TTITLE13=Willie P Richardson - Used Car Sale
TTITLE14=Willie P Richardson - Misplaced Children
TTITLE15=Willie P Richardson - Chicken Truck
EXTD=YEAR: 2002 ID3G:   2
EXTT0=
EXTT1=
EXTT2=
EXTT3=
EXTT4=
EXTT5=
EXTT6=
EXTT7=
EXTT8=
EXTT9=
EXTT10=
EXTT11=
EXTT12=
EXTT13=
EXTT14=
EXTT15=
PLAYORDER=
